<?xml version="1.0" encoding="UTF-8" standalone="no"?>
<svg
   width="128"
   height="128"
   version="1.1"
   id="svg6"
   sodipodi:docname="icon.svg"
   inkscape:version="1.3.2 (091e20e, 2023-11-25, custom)"
   xmlns:inkscape="http://www.inkscape.org/namespaces/inkscape"
   xmlns:sodipodi="http://sodipodi.sourceforge.net/DTD/sodipodi-0.dtd"
   xmlns:xlink="http://www.w3.org/1999/xlink"
   xmlns="http://www.w3.org/2000/svg"
   xmlns:svg="http://www.w3.org/2000/svg">
  <defs
     id="defs6">
    <linearGradient
       inkscape:collect="always"
       xlink:href="#linearGradient13"
       id="linearGradient15"
       x1="-22.463711"
       y1="120.70914"
       x2="120.77903"
       y2="120.70914"
       gradientUnits="userSpaceOnUse"
       gradientTransform="matrix(4.03117,0,0,3.8662466,-173.37613,-233.8418)" />
    <linearGradient
       id="linearGradient13"
       inkscape:collect="always">
      <stop
         style="stop-color:#ff3bfc;stop-opacity:0.86864406;"
         offset="0"
         id="stop14" />
      <stop
         style="stop-color:#b052fc;stop-opacity:0.72457629;"
         offset="0.50126582"
         id="stop16" />
      <stop
         style="stop-color:#5052fc;stop-opacity:0.39406779;"
         offset="1"
         id="stop15" />
    </linearGradient>
    <linearGradient
       inkscape:collect="always"
       xlink:href="#linearGradient11"
       id="linearGradient12"
       x1="-41.727962"
       y1="136.30669"
       x2="164.57994"
       y2="136.30669"
       gradientUnits="userSpaceOnUse"
       gradientTransform="matrix(3.6595239,-1.266453,1.4012023,3.5250143,-268.3552,-154.27505)" />
    <linearGradient
       id="linearGradient11"
       inkscape:collect="always">
      <stop
         style="stop-color:#d13fcb;stop-opacity:1;"
         offset="0"
         id="stop11" />
      <stop
         style="stop-color:#a03fed;stop-opacity:1;"
         offset="0.50379747"
         id="stop13" />
      <stop
         style="stop-color:#1f56f5;stop-opacity:1;"
         offset="1"
         id="stop12" />
    </linearGradient>
    <linearGradient
       inkscape:collect="always"
       xlink:href="#linearGradient238"
       id="linearGradient5"
       gradientUnits="userSpaceOnUse"
       gradientTransform="matrix(10.844778,-1.302768,1.6098623,12.228186,-1784.8852,-215.64646)"
       x1="141.91428"
       y1="50.644993"
       x2="199.84048"
       y2="50.644993" />
    <linearGradient
       id="linearGradient238"
       inkscape:collect="always">
      <stop
         style="stop-color:#4929ff;stop-opacity:1;"
         offset="0"
         id="stop237" />
      <stop
         style="stop-color:#e529ff;stop-opacity:1;"
         offset="1"
         id="stop238" />
    </linearGradient>
    <linearGradient
       inkscape:collect="always"
       xlink:href="#linearGradient112"
       id="linearGradient106"
       gradientUnits="userSpaceOnUse"
       gradientTransform="matrix(3.650712,-1.266453,1.3978283,3.5250143,-267.24855,-154.36935)"
       x1="-41.727962"
       y1="136.30669"
       x2="164.57994"
       y2="136.30669" />
    <linearGradient
       id="linearGradient112"
       inkscape:collect="always">
      <stop
         style="stop-color:#d13fcb;stop-opacity:1;"
         offset="0"
         id="stop110" />
      <stop
         style="stop-color:#a03fed;stop-opacity:1;"
         offset="0.50379747"
         id="stop111" />
      <stop
         style="stop-color:#1f56e6;stop-opacity:1;"
         offset="1"
         id="stop112" />
    </linearGradient>
    <linearGradient
       inkscape:collect="always"
       xlink:href="#linearGradient13"
       id="linearGradient237"
       gradientUnits="userSpaceOnUse"
       gradientTransform="matrix(3.780824,-1.3984641,1.9592179,3.3330659,-280.28829,-141.72216)"
       x1="-22.463711"
       y1="120.70914"
       x2="120.77903"
       y2="120.70914" />
  </defs>
  <sodipodi:namedview
     id="namedview6"
     pagecolor="#ffffff"
     bordercolor="#000000"
     borderopacity="0.25"
     inkscape:showpageshadow="2"
     inkscape:pageopacity="0.0"
     inkscape:pagecheckerboard="0"
     inkscape:deskcolor="#d1d1d1"
     inkscape:zoom="5.0010568"
     inkscape:cx="58.887553"
     inkscape:cy="69.085398"
     inkscape:window-width="1920"
     inkscape:window-height="974"
     inkscape:window-x="-11"
     inkscape:window-y="-11"
     inkscape:window-maximized="1"
     inkscape:current-layer="svg6" />
  <g
     id="g6"
     transform="matrix(0.16488612,0,0,0.16739549,39.757183,32.132134)">
    <path
       style="display:inline;fill:#ffffff;fill-opacity:0;stroke:url(#linearGradient15);stroke-width:7.72872;stroke-linecap:square;stroke-miterlimit:0;stroke-dasharray:none;stroke-opacity:1;paint-order:markers fill stroke"
       id="path11"
       sodipodi:type="arc"
       sodipodi:cx="24.74597"
       sodipodi:cy="232.84998"
       sodipodi:rx="284.73013"
       sodipodi:ry="140.9032"
       sodipodi:start="0"
       sodipodi:end="6.2478182"
       sodipodi:open="true"
       sodipodi:arc-type="arc"
       d="M 309.4761,232.84998 A 284.73013,140.9032 0 0 1 27.263457,373.74767 284.73013,140.9032 0 0 1 -259.93965,235.34151 284.73013,140.9032 0 0 1 17.194295,91.996344 284.73013,140.9032 0 0 1 309.29805,227.86768"
       transform="matrix(0.93789743,-0.34691269,0.50674933,0.86209345,0,0)" />
    <path
       id="path10"
       style="display:inline;fill:url(#linearGradient12);fill-opacity:1;stroke:none;stroke-width:7.85526;stroke-linecap:square;stroke-miterlimit:0;stroke-dasharray:none;stroke-opacity:1;paint-order:markers fill stroke"
       d="M 301.05635,3.437842 A 223.29821,399.64619 72.087998 0 0 54.837601,44.139015 223.29821,399.64619 72.087998 0 0 -228.54746,382.70932 223.29821,399.64619 72.087998 0 0 233.36932,455.06482 223.29821,399.64619 72.087998 0 0 524.92144,117.77574 l -3.1553,-7.26757 A 223.29821,399.64619 72.087998 0 0 301.05635,3.437842 Z M 265.41541,23.90073 a 163.21527,329.04109 73.780349 0 1 188.439,69.298829 l 2.92642,5.119158 A 163.21527,329.04109 73.780349 0 1 227.03676,351.26403 163.21527,329.04109 73.780349 0 1 -161.26187,315.41245 163.21527,329.04109 73.780349 0 1 61.613731,61.832375 163.21527,329.04109 73.780349 0 1 265.41541,23.90073 Z" />
    <path
       d="M 252.80766,191.02109 379.81551,-2.9961423 189.37653,61.115009 c -3.88747,1.519971 -8.48032,-0.549743 -10.59803,-4.655062 L 72.699826,-151.33777 61.288034,98.388533 c -0.114671,3.159527 -1.994457,6.192887 -5.008264,7.199797 l -195.69245,64.89335 186.655993,89.71467 c 3.51038,1.46135 6.011803,5.43541 5.803117,9.60298 L 41.098527,516.31652 165.73078,324.51778 c 2.05822,-3.09241 5.84039,-4.35602 9.50801,-2.46334 61.97197,30.04917 124.2342,60.26286 186.3267,90.53692 L 252.72118,200.63587 c -1.72675,-3.03137 -1.84743,-6.82647 0.1081,-9.66048 z M 107.90773,-168.89437 211.7254,34.403652 397.99674,-28.315115 c 1.81697,-0.828173 4.01234,-0.627333 5.99278,0.175937 l 34.4567,16.647391 c 0.99969,0.379132 1.79108,0.830612 2.4912,1.572495 3.85089,3.0372889 4.8497,8.7185425 2.20899,12.4958969 L 304.13727,215.04029 421.91903,443.97077 c 1.31905,2.45481 1.60566,4.99015 0.85345,7.64705 -1.59567,4.36807 -6.16531,6.38339 -10.34619,4.1698 l -33.37202,-16.03181 c -0.99968,-0.37924 -1.71866,-0.63077 -2.05345,-1.00566 L 210.82875,358.10074 73.079132,569.92243 c -2.058218,3.09241 -5.913944,4.15393 -9.508192,2.4635 L 29.114219,555.73851 c -0.181946,0.0593 -0.181946,0.0593 0,0 -1.08556,-0.6161 -1.791092,-0.83074 -2.417839,-1.37031 -2.442682,-2.07934 -3.814364,-5.2295 -3.494646,-8.45676 L 36.434306,273.70048 -165.31773,176.77721 c -4.38745,-2.14271 -6.717,-7.38021 -5.12153,-11.74758 0.7288,-2.64822 2.61481,-4.48212 4.96293,-5.04108 L 45.343273,90.041321 57.925173,-183.42505 c 0.155074,-4.8638 3.972498,-8.31953 8.532245,-7.43706 0.926971,0.17695 1.645334,0.42877 2.435766,0.87788 l 34.370996,16.41234 c 1.79098,0.83075 3.6198,2.39915 4.67667,4.6783 z"
       fill-rule="evenodd"
       id="path3"
       style="fill:url(#linearGradient5);fill-opacity:1;stroke:none;stroke-width:8.53202;stroke-opacity:1" />
    <path
       style="fill:#ffffff;fill-opacity:1;stroke:none;stroke-width:11.5894;stroke-linecap:square;stroke-miterlimit:0;stroke-dasharray:none;stroke-opacity:1;paint-order:markers fill stroke"
       d="m 266.77978,365.76263 c -50.69261,-24.659 -93.334,-44.93049 -94.75779,-45.04773 -1.54858,-0.12699 -3.4377,0.52475 -4.70211,1.62565 -1.15914,1.01745 -29.73161,44.31999 -63.49272,96.2279 -33.760996,51.90792 -61.53233,94.26944 -61.713773,94.13621 -0.176315,-0.13418 2.34839,-54.98809 5.622519,-121.90031 4.056541,-82.90598 5.534521,-122.8122 4.640096,-125.27914 -0.986355,-2.72061 -2.617886,-4.34978 -6.563301,-6.55555 C 42.9262,257.35509 2.5740626,237.85813 -43.85548,215.6429 -90.285476,193.42751 -130.45355,174.08772 -133.1184,172.66503 l -4.84503,-2.58603 98.929282,-32.62884 c 88.320598,-29.12879 99.029099,-32.86399 99.867213,-34.81628 0.514806,-1.20314 3.466678,-57.710174 6.556933,-125.57039 3.090357,-67.860239 5.778962,-123.81677 5.975047,-124.34748 0.194722,-0.53218 23.621379,44.71392 52.056355,100.544676 28.4349,55.8302068 52.71859,102.947914 53.96368,104.705897 4.36978,6.170098 -0.6861,7.535558 103.27998,-27.894149 52.05278,-17.738839 94.73703,-31.9883722 94.85318,-31.6681215 0.11716,0.3204284 -28.40667,44.2987585 -63.38521,97.7268715 -46.94941,71.713476 -63.50945,97.864846 -63.26181,99.902166 0.18897,1.51604 24.56269,49.95057 54.17348,107.6276 29.61097,57.67718 53.85203,105.33014 53.86889,105.89552 0.0302,0.56266 -41.44547,-19.14776 -92.13839,-43.80672 z"
       id="path4" />
    <path
       style="fill:#ffffff;fill-opacity:1;stroke:none;stroke-width:11.5894;stroke-linecap:square;stroke-miterlimit:0;stroke-dasharray:none;stroke-opacity:1;paint-order:markers fill stroke"
       d="m 266.77978,365.76263 c -50.69261,-24.659 -93.334,-44.93049 -94.75779,-45.04773 -1.54858,-0.12699 -3.4377,0.52475 -4.70211,1.62565 -1.15914,1.01745 -29.73161,44.31999 -63.49272,96.2279 -33.760996,51.90792 -61.53233,94.26944 -61.713773,94.13621 -0.176315,-0.13418 2.34839,-54.98809 5.622519,-121.90031 4.056541,-82.90598 5.534521,-122.8122 4.640096,-125.27914 -0.986355,-2.72061 -2.617886,-4.34978 -6.563301,-6.55555 C 42.9262,257.35509 2.5740626,237.85813 -43.85548,215.6429 -90.285476,193.42751 -130.45355,174.08772 -133.1184,172.66503 l -4.84503,-2.58603 98.929282,-32.62884 c 88.320598,-29.12879 99.029099,-32.86399 99.867213,-34.81628 0.514806,-1.20314 3.466678,-57.710174 6.556933,-125.57039 3.090357,-67.860239 5.778962,-123.81677 5.975047,-124.34748 0.194722,-0.53218 23.621379,44.71392 52.056355,100.544676 28.4349,55.8302068 52.71859,102.947914 53.96368,104.705897 4.36978,6.170098 -0.6861,7.535558 103.27998,-27.894149 52.05278,-17.738839 94.73703,-31.9883722 94.85318,-31.6681215 0.11716,0.3204284 -28.40667,44.2987585 -63.38521,97.7268715 -46.94941,71.713476 -63.50945,97.864846 -63.26181,99.902166 0.18897,1.51604 24.56269,49.95057 54.17348,107.6276 29.61097,57.67718 53.85203,105.33014 53.86889,105.89552 0.0302,0.56266 -41.44547,-19.14776 -92.13839,-43.80672 z"
       id="path5" />
    <path
       style="fill:#ffffff;fill-opacity:1;stroke:none;stroke-width:11.5894;stroke-linecap:square;stroke-miterlimit:0;stroke-dasharray:none;stroke-opacity:1;paint-order:markers fill stroke"
       d="m 266.77978,365.76263 c -50.69261,-24.659 -93.334,-44.93049 -94.75779,-45.04773 -1.54858,-0.12699 -3.4377,0.52475 -4.70211,1.62565 -1.15914,1.01745 -29.73161,44.31999 -63.49272,96.2279 -33.760996,51.90792 -61.53233,94.26944 -61.713773,94.13621 -0.176315,-0.13418 2.34839,-54.98809 5.622519,-121.90031 4.056541,-82.90598 5.534521,-122.8122 4.640096,-125.27914 -0.986355,-2.72061 -2.617886,-4.34978 -6.563301,-6.55555 C 42.9262,257.35509 2.5740626,237.85813 -43.85548,215.6429 -90.285476,193.42751 -130.45355,174.08772 -133.1184,172.66503 l -4.84503,-2.58603 98.929282,-32.62884 c 88.320598,-29.12879 99.029099,-32.86399 99.867213,-34.81628 0.514806,-1.20314 3.466678,-57.710174 6.556933,-125.57039 3.090357,-67.860239 5.778962,-123.81677 5.975047,-124.34748 0.194722,-0.53218 23.621379,44.71392 52.056355,100.544676 28.4349,55.8302068 52.71859,102.947914 53.96368,104.705897 4.36978,6.170098 -0.6861,7.535558 103.27998,-27.894149 52.05278,-17.738839 94.73703,-31.9883722 94.85318,-31.6681215 0.11716,0.3204284 -28.40667,44.2987585 -63.38521,97.7268715 -46.94941,71.713476 -63.50945,97.864846 -63.26181,99.902166 0.18897,1.51604 24.56269,49.95057 54.17348,107.6276 29.61097,57.67718 53.85203,105.33014 53.86889,105.89552 0.0302,0.56266 -41.44547,-19.14776 -92.13839,-43.80672 z"
       id="path8" />
    <path
       d="m 344.79962,294.70162 c -34.75242,22.07308 -74.8938,41.3074 -117.84835,56.46875 -64.82729,22.81474 -137.642752,36.69774 -200.004372,37.24807 l -0.81171,105.24802 c 33.51179,-0.56209 68.39457,-4.21013 103.669672,-10.8418 l 80.97645,-124.81834 115.61934,56.25 c 21.43835,-11.52598 41.73801,-24.00681 60.6271,-37.27541 z"
       style="display:inline;fill:url(#linearGradient106);stroke:none;stroke-width:7.84581;stroke-linecap:square;stroke-miterlimit:0;paint-order:markers fill stroke"
       id="path110"
       sodipodi:nodetypes="ccccccccc" />
    <path
       id="path228"
       style="display:inline;fill:none;fill-opacity:0;stroke:url(#linearGradient237);stroke-width:7.66802;stroke-linecap:square;stroke-miterlimit:0;stroke-dasharray:none;stroke-opacity:1;paint-order:markers fill stroke"
       d="M 327.19432,255.0501 A 138.01433,286.14158 72.848087 0 1 215.78658,312.47231 138.01433,286.14158 72.848087 0 1 36.177638,348.37877" />
  </g>
</svg>
