<?xml version="1.0" encoding="UTF-8" standalone="no"?>
<svg
   width="128"
   height="128"
   version="1.1"
   id="svg6"
   xmlns:xlink="http://www.w3.org/1999/xlink"
   xmlns="http://www.w3.org/2000/svg"
   xmlns:svg="http://www.w3.org/2000/svg">
  <defs
     id="defs6">
    <linearGradient
       id="linearGradient1237">
      <stop
         style="stop-color:#3f91d1;stop-opacity:1;"
         offset="0"
         id="stop1231" />
      <stop
         style="stop-color:#3f40ed;stop-opacity:0.76084781;"
         offset="0.50126582"
         id="stop1233" />
      <stop
         style="stop-color:#6f1ff5;stop-opacity:0.81322205;"
         offset="1"
         id="stop1235" />
    </linearGradient>
    <linearGradient
       xlink:href="#linearGradient1237"
       id="linearGradient15"
       x1="-22.463711"
       y1="120.70914"
       x2="120.77903"
       y2="120.70914"
       gradientUnits="userSpaceOnUse"
       gradientTransform="matrix(0.66590953,0,0,0.64471481,-10.08044,5.6745678)" />
    <linearGradient
       id="linearGradient13">
      <stop
         style="stop-color:#3f91d1;stop-opacity:1;"
         offset="0"
         id="stop14" />
      <stop
         style="stop-color:#3f40ed;stop-opacity:0.76078433;"
         offset="0.50126582"
         id="stop16" />
      <stop
         style="stop-color:#6f1ff5;stop-opacity:0.81176472;"
         offset="1"
         id="stop15" />
    </linearGradient>
    <linearGradient
       xlink:href="#linearGradient11"
       id="linearGradient12"
       x1="-41.727962"
       y1="136.30669"
       x2="164.57994"
       y2="136.30669"
       gradientUnits="userSpaceOnUse"
       gradientTransform="matrix(0.6034047,-0.21199852,0.23103881,0.5900715,-4.4908647,6.3071864)" />
    <linearGradient
       id="linearGradient11">
      <stop
         style="stop-color:#3f91d1;stop-opacity:1;"
         offset="0"
         id="stop11" />
      <stop
         style="stop-color:#3f40ed;stop-opacity:1;"
         offset="0.50379747"
         id="stop13" />
      <stop
         style="stop-color:#6f1ff5;stop-opacity:1;"
         offset="1"
         id="stop12" />
    </linearGradient>
    <linearGradient
       xlink:href="#linearGradient238"
       id="linearGradient5"
       gradientUnits="userSpaceOnUse"
       gradientTransform="matrix(1.7881534,-0.21807749,0.26544395,2.0469432,-254.54561,-3.9661108)"
       x1="141.91428"
       y1="50.644993"
       x2="199.84048"
       y2="50.644993" />
    <linearGradient
       id="linearGradient238">
      <stop
         style="stop-color:#3f91d1;stop-opacity:1;"
         offset="0"
         id="stop237" />
      <stop
         style="stop-color:#6f1ff5;stop-opacity:1;"
         offset="1"
         id="stop238" />
    </linearGradient>
    <linearGradient
       xlink:href="#linearGradient112"
       id="linearGradient106"
       gradientUnits="userSpaceOnUse"
       gradientTransform="matrix(0.60195174,-0.21199852,0.23048248,0.5900715,-4.3083935,6.291401)"
       x1="-41.727962"
       y1="136.30669"
       x2="164.57994"
       y2="136.30669" />
    <linearGradient
       id="linearGradient112">
      <stop
         style="stop-color:#3f91d1;stop-opacity:1;"
         offset="0"
         id="stop110" />
      <stop
         style="stop-color:#3f40ed;stop-opacity:1;"
         offset="0.50379747"
         id="stop111" />
      <stop
         style="stop-color:#6f1ff5;stop-opacity:1;"
         offset="1"
         id="stop112" />
    </linearGradient>
    <linearGradient
       xlink:href="#linearGradient13"
       id="linearGradient237"
       gradientUnits="userSpaceOnUse"
       gradientTransform="matrix(0.6234054,-0.23409658,0.32304784,0.5579402,-6.4584656,8.4084836)"
       x1="-22.463711"
       y1="120.70914"
       x2="120.77903"
       y2="120.70914" />
  </defs>
  <path
     style="display:inline;fill:#ffffff;fill-opacity:0;stroke:url(#linearGradient15);stroke-width:1.26518;stroke-linecap:square;stroke-miterlimit:0;stroke-dasharray:none;stroke-opacity:1;paint-order:markers fill stroke"
     id="path11"
     d="M 69.681988,83.49762 A 47.034611,23.496271 0 0 1 23.063241,106.99297 47.034611,23.496271 0 0 1 -24.37988,83.913096 47.034611,23.496271 0 0 1 21.399915,60.009614 47.034611,23.496271 0 0 1 69.652575,82.666798"
     transform="matrix(0.93617132,-0.35154411,0.5010709,0.86540623,0,0)" />
  <path
     id="path10"
     style="display:inline;fill:url(#linearGradient12);fill-opacity:1;stroke:none;stroke-width:1.30504;stroke-linecap:square;stroke-miterlimit:0;stroke-dasharray:none;stroke-opacity:1;paint-order:markers fill stroke"
     d="M 89.397196,32.707613 A 37.324326,65.992837 71.594931 0 0 48.799142,39.520806 37.324326,65.992837 71.594931 0 0 2.0728791,96.195948 37.324326,65.992837 71.594931 0 0 78.236545,108.30793 37.324326,65.992837 71.594931 0 0 126.30944,51.847262 l -0.52026,-1.216559 A 37.324326,65.992837 71.594931 0 0 89.397196,32.707613 Z M 83.5205,36.133008 a 27.288569,54.319782 73.39005 0 1 31.07098,11.600312 l 0.48252,0.856924 A 27.288569,54.319782 73.39005 0 1 77.192393,90.932148 27.288569,54.319782 73.39005 0 1 13.167339,84.930756 27.288569,54.319782 73.39005 0 1 49.916432,42.482595 27.288569,54.319782 73.39005 0 1 83.5205,36.133008 Z" />
  <path
     d="M 81.441657,64.108203 102.38349,31.630593 70.982744,42.362511 c -0.64099,0.254436 -1.398287,-0.09202 -1.747468,-0.779237 L 51.744375,6.7988738 49.862729,48.601931 c -0.01891,0.52889 -0.328858,1.036661 -0.825793,1.205213 L 16.769967,60.669998 47.54695,75.68783 c 0.578813,0.244623 0.991262,0.909863 0.956853,1.607495 L 46.53376,118.56119 67.083888,86.454947 c 0.339372,-0.517656 0.963,-0.729178 1.567739,-0.412352 10.218318,5.030095 20.484495,10.087731 30.722687,15.155475 L 81.427398,65.717674 c -0.284717,-0.507438 -0.304616,-1.142721 0.01782,-1.617121 z M 57.54967,3.8599782 74.667763,37.89115 105.38132,27.392311 c 0.29959,-0.138632 0.66158,-0.105012 0.98813,0.02945 l 5.68143,2.786698 c 0.16483,0.06347 0.29532,0.13904 0.41076,0.263228 0.63496,0.508429 0.79965,1.459445 0.36424,2.091757 L 89.905197,68.128909 109.32577,106.45084 c 0.2175,0.41092 0.26476,0.83533 0.14073,1.28008 -0.26311,0.7312 -1.01658,1.06855 -1.70595,0.69801 l -5.50258,-2.68366 c -0.16483,-0.0635 -0.28338,-0.10558 -0.33858,-0.16834 l -27.399472,-13.500347 -22.713,35.457997 c -0.339372,0.51765 -0.975128,0.69535 -1.567769,0.41238 l -5.681435,-2.78671 c -0.03,0.01 -0.03,0.01 0,0 -0.178994,-0.10313 -0.295327,-0.13906 -0.398668,-0.22938 -0.402765,-0.34807 -0.628936,-0.87539 -0.576219,-1.41562 L 45.764694,77.94836 12.498584,61.723842 c -0.72343,-0.35868 -1.10754,-1.235414 -0.844469,-1.966492 0.120169,-0.4433 0.431146,-0.750287 0.818318,-0.843854 L 47.233659,47.204645 49.30824,1.4276079 c 0.02557,-0.81417821 0.65501,-1.39265182 1.406849,-1.24493033 0.152844,0.0296206 0.271293,0.0717742 0.401624,0.14695316 l 5.6673,2.74735167 c 0.295308,0.1390638 0.596855,0.4016069 0.771118,0.7831263 z"
     fill-rule="evenodd"
     id="path3"
     style="fill:url(#linearGradient5);fill-opacity:1;stroke:none;stroke-width:1.41748;stroke-opacity:1" />
  <path
     style="fill:#ffffff;fill-opacity:1;stroke:none;stroke-width:1.92542;stroke-linecap:square;stroke-miterlimit:0;stroke-dasharray:none;stroke-opacity:1;paint-order:markers fill stroke"
     d="m 83.745466,93.359149 c -8.358508,-4.127806 -15.389481,-7.521162 -15.624245,-7.540787 -0.255339,-0.02126 -0.566829,0.08784 -0.775312,0.272126 -0.191126,0.170317 -4.90233,7.418967 -10.469068,16.108112 -5.56672,8.68916 -10.145828,15.78028 -10.175745,15.75798 -0.02907,-0.0225 0.387217,-9.20476 0.927075,-20.40556 0.668868,-13.878087 0.912566,-20.558209 0.765088,-20.971163 -0.162636,-0.455418 -0.431653,-0.728134 -1.082197,-1.09737 -0.475944,-0.270272 -7.129452,-3.533975 -14.785039,-7.252704 -7.655662,-3.718756 -14.27882,-6.95615 -14.718216,-7.194302 l -0.798879,-0.432889 16.312066,-5.461921 c 14.562841,-4.876028 16.328524,-5.501284 16.466717,-5.828088 0.08488,-0.201401 0.571607,-9.660423 1.081147,-21.019917 0.509557,-11.359498 0.952871,-20.7263692 0.985203,-20.8152077 0.03211,-0.089085 3.894837,7.4849087 8.58337,16.8307257 4.68852,9.345724 8.692564,17.233016 8.897862,17.527295 0.720516,1.032846 -0.113129,1.261418 17.029435,-4.669355 8.582781,-2.969402 15.620822,-5.354709 15.639972,-5.301101 0.0193,0.05364 -4.683865,7.415412 -10.451341,16.359038 -7.741306,12.004512 -10.471826,16.382133 -10.430994,16.723172 0.03116,0.253778 4.050047,8.3615 8.932455,18.016375 4.882438,9.654899 8.879452,17.631792 8.882232,17.726432 0.005,0.0942 -6.833782,-3.205249 -15.192341,-7.333047 z"
     id="path4" />
  <path
     style="fill:#ffffff;fill-opacity:1;stroke:none;stroke-width:1.92542;stroke-linecap:square;stroke-miterlimit:0;stroke-dasharray:none;stroke-opacity:1;paint-order:markers fill stroke"
     d="m 83.745466,93.359149 c -8.358508,-4.127806 -15.389481,-7.521162 -15.624245,-7.540787 -0.255339,-0.02126 -0.566829,0.08784 -0.775312,0.272126 -0.191126,0.170317 -4.90233,7.418967 -10.469068,16.108112 -5.56672,8.68916 -10.145828,15.78028 -10.175745,15.75798 -0.02907,-0.0225 0.387217,-9.20476 0.927075,-20.40556 0.668868,-13.878087 0.912566,-20.558209 0.765088,-20.971163 -0.162636,-0.455418 -0.431653,-0.728134 -1.082197,-1.09737 -0.475944,-0.270272 -7.129452,-3.533975 -14.785039,-7.252704 -7.655662,-3.718756 -14.27882,-6.95615 -14.718216,-7.194302 l -0.798879,-0.432889 16.312066,-5.461921 c 14.562841,-4.876028 16.328524,-5.501284 16.466717,-5.828088 0.08488,-0.201401 0.571607,-9.660423 1.081147,-21.019917 0.509557,-11.359498 0.952871,-20.7263692 0.985203,-20.8152077 0.03211,-0.089085 3.894837,7.4849087 8.58337,16.8307257 4.68852,9.345724 8.692564,17.233016 8.897862,17.527295 0.720516,1.032846 -0.113129,1.261418 17.029435,-4.669355 8.582781,-2.969402 15.620822,-5.354709 15.639972,-5.301101 0.0193,0.05364 -4.683865,7.415412 -10.451341,16.359038 -7.741306,12.004512 -10.471826,16.382133 -10.430994,16.723172 0.03116,0.253778 4.050047,8.3615 8.932455,18.016375 4.882438,9.654899 8.879452,17.631792 8.882232,17.726432 0.005,0.0942 -6.833782,-3.205249 -15.192341,-7.333047 z"
     id="path5" />
  <path
     style="fill:#ffffff;fill-opacity:1;stroke:none;stroke-width:1.92542;stroke-linecap:square;stroke-miterlimit:0;stroke-dasharray:none;stroke-opacity:1;paint-order:markers fill stroke"
     d="m 83.745466,93.359149 c -8.358508,-4.127806 -15.389481,-7.521162 -15.624245,-7.540787 -0.255339,-0.02126 -0.566829,0.08784 -0.775312,0.272126 -0.191126,0.170317 -4.90233,7.418967 -10.469068,16.108112 -5.56672,8.68916 -10.145828,15.78028 -10.175745,15.75798 -0.02907,-0.0225 0.387217,-9.20476 0.927075,-20.40556 0.668868,-13.878087 0.912566,-20.558209 0.765088,-20.971163 -0.162636,-0.455418 -0.431653,-0.728134 -1.082197,-1.09737 -0.475944,-0.270272 -7.129452,-3.533975 -14.785039,-7.252704 -7.655662,-3.718756 -14.27882,-6.95615 -14.718216,-7.194302 l -0.798879,-0.432889 16.312066,-5.461921 c 14.562841,-4.876028 16.328524,-5.501284 16.466717,-5.828088 0.08488,-0.201401 0.571607,-9.660423 1.081147,-21.019917 0.509557,-11.359498 0.952871,-20.7263692 0.985203,-20.8152077 0.03211,-0.089085 3.894837,7.4849087 8.58337,16.8307257 4.68852,9.345724 8.692564,17.233016 8.897862,17.527295 0.720516,1.032846 -0.113129,1.261418 17.029435,-4.669355 8.582781,-2.969402 15.620822,-5.354709 15.639972,-5.301101 0.0193,0.05364 -4.683865,7.415412 -10.451341,16.359038 -7.741306,12.004512 -10.471826,16.382133 -10.430994,16.723172 0.03116,0.253778 4.050047,8.3615 8.932455,18.016375 4.882438,9.654899 8.879452,17.631792 8.882232,17.726432 0.005,0.0942 -6.833782,-3.205249 -15.192341,-7.333047 z"
     id="path8" />
  <path
     d="m 96.609855,81.463856 c -5.730192,3.694934 -12.348949,6.914673 -19.431558,9.452614 -10.68912,3.819085 -22.695379,6.143036 -32.977945,6.235159 l -0.133839,17.618041 c 5.525629,-0.0941 11.277315,-0.70475 17.09369,-1.81487 L 74.512095,92.060777 93.57612,101.47677 c 3.534886,-1.929393 6.88202,-4.018628 9.99657,-6.239732 z"
     style="display:inline;fill:url(#linearGradient106);stroke:none;stroke-width:1.30347;stroke-linecap:square;stroke-miterlimit:0;paint-order:markers fill stroke"
     id="path110" />
  <path
     id="path228"
     style="display:inline;fill:none;fill-opacity:0;stroke:url(#linearGradient237);stroke-width:1.27393;stroke-linecap:square;stroke-miterlimit:0;stroke-dasharray:none;stroke-opacity:1;paint-order:markers fill stroke"
     d="m 93.706985,74.82637 a 23.071965,47.244192 72.449942 0 1 -18.36959,9.612219 23.071965,47.244192 72.449942 0 1 -29.615022,6.01058" />
</svg>
